<svg xmlns="http://www.w3.org/2000/svg" viewBox="0 0 1024 1024">
<path d="M 665 913 664 914 660 914 659 915 658 915 657 916 656 916 653 919 653 920 652 921 652 922 651 923 651 924 650 925 650 927 649 928 649 966 866 966 867 965 904 965 904 927 903 926 903 923 902 922 902 921 901 920 901 919 898 916 897 916 896 915 895 915 894 914 891 914 890 913 Z" fill="black"/>
<path d="M 411 913 410 914 406 914 405 915 403 915 401 917 400 917 399 918 399 919 398 920 398 921 397 922 397 923 396 924 396 926 395 927 395 932 394 933 394 966 628 966 628 929 627 928 627 924 626 923 626 922 625 921 625 920 623 918 623 917 622 916 621 916 620 915 619 915 618 914 615 914 614 913 Z" fill="black"/>
<path d="M 136 913 135 914 131 914 130 915 128 915 127 916 126 916 123 919 123 920 122 921 122 922 121 923 121 924 120 925 120 927 119 928 119 966 338 966 339 965 376 965 375 964 375 961 376 960 376 934 375 933 375 926 374 925 374 923 373 922 373 921 372 920 372 919 369 916 368 916 367 915 366 915 365 914 362 914 361 913 Z" fill="black"/>
<path d="M 726 822 725 823 717 823 716 824 712 824 711 825 709 825 708 826 705 826 704 827 703 827 702 828 701 828 700 829 699 829 698 830 697 830 696 831 695 831 694 832 693 832 691 834 690 834 686 838 685 838 679 844 679 845 676 848 676 849 674 851 674 852 672 854 672 855 671 856 671 857 670 858 670 859 669 860 669 861 668 862 668 864 667 865 667 867 666 868 666 871 665 872 665 879 664 880 664 896 663 897 663 898 852 898 853 897 869 897 868 896 868 885 867 884 867 874 866 873 866 869 865 868 865 866 864 865 864 864 863 863 863 862 862 861 862 860 861 859 861 858 860 857 860 856 859 855 859 854 857 852 857 851 856 850 856 849 854 847 854 846 846 838 845 838 842 835 841 835 839 833 838 833 837 832 836 832 834 830 833 830 832 829 830 829 829 828 828 828 827 827 826 827 825 826 823 826 822 825 819 825 818 824 815 824 814 823 808 823 807 822 Z" fill="black"/>
<path d="M 475 822 474 823 464 823 463 824 459 824 458 825 455 825 454 826 452 826 451 827 449 827 448 828 447 828 446 829 445 829 444 830 443 830 442 831 441 831 439 833 438 833 436 835 435 835 423 847 423 848 420 851 420 852 418 854 418 855 417 856 417 857 416 858 416 859 415 860 415 861 414 862 414 864 413 865 413 867 412 868 412 872 411 873 411 879 410 880 410 898 607 898 608 897 612 897 613 898 614 897 614 896 613 895 613 882 612 881 612 872 611 871 611 868 610 867 610 865 609 864 609 863 608 862 608 861 607 860 607 859 606 858 606 857 604 855 604 854 603 853 603 852 602 851 602 850 600 848 600 847 591 838 590 838 588 836 587 836 585 834 584 834 582 832 581 832 580 831 579 831 578 830 577 830 576 829 575 829 574 828 573 828 572 827 570 827 569 826 567 826 566 825 564 825 563 824 559 824 558 823 552 823 551 822 Z" fill="black"/>
<path d="M 225 822 224 823 211 823 210 824 206 824 205 825 202 825 201 826 199 826 198 827 196 827 195 828 194 828 193 829 192 829 191 830 190 830 189 831 188 831 187 832 186 832 184 834 183 834 180 837 179 837 168 848 168 849 166 851 166 852 165 853 165 854 163 856 163 857 162 858 162 859 161 860 161 861 160 862 160 864 159 865 159 867 158 868 158 870 157 871 157 876 156 877 156 888 155 889 155 899 165 899 166 898 359 898 359 886 358 885 358 874 357 873 357 869 356 868 356 866 355 865 355 864 354 863 354 862 353 861 353 860 352 859 352 858 351 857 351 856 350 855 350 854 349 853 349 852 347 850 347 849 345 847 345 846 338 839 337 839 334 836 333 836 332 835 331 835 329 833 328 833 326 831 325 831 324 830 323 830 322 829 321 829 320 828 319 828 318 827 316 827 315 826 313 826 312 825 309 825 308 824 305 824 304 823 296 823 295 822 Z" fill="black"/>
<path d="M 841 707 840 708 820 708 822 710 822 711 824 713 824 714 825 715 825 716 826 717 826 718 827 719 827 720 828 721 828 722 829 723 829 724 830 725 830 727 831 728 831 729 832 730 832 732 833 733 833 735 834 736 834 738 835 739 835 744 836 745 836 754 837 755 837 760 836 761 836 769 835 770 835 773 904 773 904 727 903 726 903 713 902 712 902 711 899 708 897 708 896 707 Z" fill="black"/>
<path d="M 600 707 599 708 566 708 567 709 567 710 569 712 569 713 570 714 570 715 572 717 572 718 573 719 573 720 574 721 574 722 575 723 575 724 576 725 576 726 577 727 577 729 578 730 578 732 579 733 579 735 580 736 580 739 581 740 581 744 582 745 582 766 581 767 581 771 580 772 580 773 696 773 696 772 695 771 695 766 694 765 694 743 695 742 695 738 696 737 696 734 697 733 697 731 698 730 698 728 699 727 699 725 700 724 700 723 701 722 701 721 702 720 702 719 703 718 703 717 705 715 705 714 708 711 708 710 710 708 618 708 617 707 616 707 615 708 612 708 611 707 610 708 605 708 604 707 Z" fill="black"/>
<path d="M 343 707 342 708 313 708 315 710 315 711 317 713 317 714 318 715 318 716 319 717 319 718 320 719 320 720 321 721 321 722 322 723 322 724 323 725 323 726 324 727 324 729 325 730 325 731 326 732 326 734 327 735 327 738 328 739 328 742 329 743 329 765 328 766 328 769 327 770 327 773 443 773 443 771 442 770 442 765 441 764 441 740 442 739 442 735 443 734 443 731 444 730 444 728 445 727 445 725 446 724 446 723 447 722 447 721 448 720 448 719 449 718 449 717 451 715 451 714 453 712 453 711 457 707 Z" fill="black"/>
<path d="M 126 707 125 708 124 708 122 710 122 711 121 712 121 715 120 716 120 769 119 770 119 773 189 773 189 772 188 771 188 767 187 766 187 756 186 755 186 750 187 749 187 742 188 741 188 737 189 736 189 733 190 732 190 730 191 729 191 727 192 726 192 724 193 723 193 722 194 721 194 720 196 718 196 717 198 715 198 714 200 712 200 711 204 707 Z" fill="black"/>
<path d="M 250 702 249 703 245 703 244 704 241 704 240 705 238 705 237 706 236 706 235 707 234 707 233 708 232 708 231 709 230 709 228 711 227 711 225 713 224 713 216 721 216 722 213 725 213 726 212 727 212 728 210 730 210 731 209 732 209 734 208 735 208 737 207 738 207 740 206 741 206 747 205 748 205 754 206 755 206 766 207 767 207 770 208 771 208 773 209 774 209 776 210 777 210 778 211 779 211 780 212 781 212 782 214 784 214 785 216 787 216 788 224 796 225 796 227 798 228 798 230 800 231 800 232 801 233 801 234 802 235 802 236 803 237 803 238 804 240 804 241 805 243 805 244 806 247 806 248 807 267 807 268 806 271 806 272 805 274 805 275 804 277 804 278 803 280 803 281 802 282 802 283 801 284 801 286 799 287 799 288 798 289 798 293 794 294 794 299 789 299 788 302 785 302 784 304 782 304 781 305 780 305 779 306 778 306 777 307 776 307 774 308 773 308 771 309 770 309 768 310 767 310 761 311 760 311 750 310 749 310 744 309 743 309 740 308 739 308 737 307 736 307 734 306 733 306 732 305 731 305 730 303 728 303 727 302 726 302 725 299 722 299 721 292 714 291 714 289 712 288 712 286 710 285 710 284 709 283 709 282 708 281 708 280 707 279 707 278 706 276 706 275 705 273 705 272 704 269 704 268 703 262 703 261 702 Z" fill="black"/>
<path d="M 763 701 762 702 755 702 754 703 751 703 750 704 747 704 746 705 745 705 744 706 742 706 741 707 740 707 739 708 738 708 736 710 735 710 732 713 731 713 723 721 723 722 720 725 720 726 719 727 719 728 718 729 718 730 717 731 717 732 716 733 716 734 715 735 715 737 714 738 714 741 713 742 713 746 712 747 712 761 713 762 713 767 714 768 714 771 715 772 715 774 716 775 716 777 717 778 717 779 718 780 718 781 719 782 719 783 720 784 720 785 722 787 722 788 732 798 733 798 735 800 736 800 738 802 739 802 740 803 741 803 742 804 744 804 745 805 747 805 748 806 751 806 752 807 770 807 771 806 776 806 777 805 780 805 781 804 783 804 784 803 786 803 787 802 789 802 790 801 791 801 792 800 793 800 794 799 795 799 796 798 797 798 800 795 801 795 807 789 807 788 810 785 810 784 811 783 811 782 812 781 812 780 813 779 813 778 814 777 814 776 815 775 815 773 816 772 816 770 817 769 817 765 818 764 818 748 817 747 817 743 816 742 816 739 815 738 815 737 814 736 814 734 813 733 813 732 812 731 812 730 811 729 811 728 810 727 810 726 808 724 808 723 806 721 806 720 796 710 795 710 793 708 792 708 791 707 790 707 789 706 788 706 787 705 785 705 784 704 782 704 781 703 778 703 777 702 768 702 767 701 Z" fill="black"/>
<path d="M 509 701 508 702 501 702 500 703 496 703 495 704 493 704 492 705 490 705 489 706 488 706 487 707 486 707 485 708 484 708 482 710 481 710 479 712 478 712 468 722 468 723 466 725 466 726 465 727 465 728 464 729 464 730 463 731 463 732 462 733 462 735 461 736 461 738 460 739 460 742 459 743 459 752 458 753 458 754 459 755 459 765 460 766 460 769 461 770 461 773 462 774 462 775 463 776 463 778 464 779 464 780 465 781 465 782 466 783 466 784 468 786 468 787 471 790 471 791 475 795 476 795 480 799 481 799 483 801 484 801 485 802 486 802 487 803 488 803 489 804 491 804 492 805 494 805 495 806 498 806 499 807 517 807 518 806 523 806 524 805 527 805 528 804 530 804 531 803 533 803 534 802 535 802 536 801 537 801 538 800 539 800 540 799 541 799 543 797 544 797 546 795 547 795 553 789 553 788 555 786 555 785 557 783 557 782 558 781 558 780 559 779 559 778 560 777 560 776 561 775 561 773 562 772 562 769 563 768 563 764 564 763 564 748 563 747 563 742 562 741 562 739 561 738 561 736 560 735 560 734 559 733 559 732 558 731 558 730 557 729 557 728 556 727 556 726 555 725 555 724 553 722 553 721 550 718 550 717 545 712 544 712 541 709 540 709 539 708 538 708 537 707 536 707 535 706 534 706 533 705 532 705 531 704 529 704 528 703 524 703 523 702 517 702 516 701 Z" fill="black"/>
<path d="M 471 615 470 616 465 616 464 617 460 617 459 618 456 618 455 619 453 619 452 620 451 620 450 621 448 621 447 622 446 622 444 624 443 624 442 625 441 625 440 626 439 626 435 630 434 630 429 635 429 636 424 641 424 642 422 644 422 645 421 646 421 647 420 648 420 649 419 650 419 651 418 652 418 654 417 655 417 659 416 660 416 667 415 668 415 680 414 681 414 694 473 694 474 693 475 693 477 691 478 691 479 690 480 690 481 689 482 689 483 688 484 688 485 687 487 687 488 686 490 686 491 685 494 685 495 684 499 684 500 683 508 683 509 682 512 682 513 683 524 683 525 684 529 684 530 685 533 685 534 686 536 686 537 687 538 687 539 688 541 688 542 689 543 689 544 690 545 690 546 691 547 691 548 692 550 692 551 693 552 693 553 694 561 694 562 695 609 695 609 693 608 692 608 681 609 680 609 668 608 667 608 661 607 660 607 657 606 656 606 654 605 653 605 652 604 651 604 650 603 649 603 648 602 647 602 646 600 644 600 643 597 640 597 639 594 636 594 635 588 629 587 629 584 626 583 626 581 624 580 624 579 623 578 623 577 622 576 622 575 621 574 621 573 620 572 620 571 619 569 619 568 618 566 618 565 617 562 617 561 616 556 616 555 615 Z" fill="black"/>
<path d="M 724 613 723 614 717 614 716 615 713 615 712 616 710 616 709 617 707 617 706 618 704 618 703 619 702 619 700 621 699 621 698 622 697 622 695 624 694 624 691 627 690 627 683 634 683 635 678 640 678 641 676 643 676 644 674 646 674 647 673 648 673 650 672 651 672 652 671 653 671 656 670 657 670 662 669 663 669 672 668 673 668 686 667 687 667 694 728 694 729 693 730 693 732 691 733 691 734 690 735 690 736 689 737 689 738 688 740 688 741 687 742 687 743 686 746 686 747 685 750 685 751 684 756 684 757 683 775 683 776 684 780 684 781 685 785 685 786 686 788 686 789 687 791 687 792 688 793 688 794 689 796 689 797 690 798 690 799 691 800 691 801 692 802 692 803 693 804 693 805 694 810 694 811 695 864 695 864 682 863 681 863 669 862 668 862 661 861 660 861 657 860 656 860 653 859 652 859 650 858 649 858 648 857 647 857 646 855 644 855 643 853 641 853 640 849 636 849 635 842 628 841 628 838 625 837 625 835 623 834 623 832 621 831 621 830 620 829 620 828 619 826 619 825 618 824 618 823 617 821 617 820 616 818 616 817 615 814 615 813 614 807 614 806 613 Z" fill="black"/>
<path d="M 213 613 212 614 208 614 207 615 204 615 203 616 201 616 200 617 198 617 197 618 195 618 194 619 193 619 192 620 191 620 189 622 188 622 187 623 186 623 183 626 182 626 173 635 173 636 170 639 170 640 167 643 167 644 166 645 166 646 165 647 165 648 164 649 164 651 163 652 163 655 162 656 162 660 161 661 161 672 160 673 160 686 159 687 159 694 219 694 220 693 221 693 223 691 224 691 225 690 226 690 227 689 228 689 229 688 230 688 231 687 233 687 234 686 236 686 237 685 240 685 241 684 244 684 245 683 268 683 269 684 273 684 274 685 277 685 278 686 280 686 281 687 282 687 283 688 285 688 286 689 287 689 288 690 289 690 290 691 291 691 292 692 293 692 294 693 297 693 298 694 310 694 311 695 356 695 356 694 355 693 355 669 354 668 354 662 353 661 353 657 352 656 352 654 351 653 351 651 350 650 350 649 349 648 349 647 348 646 348 645 346 643 346 642 343 639 343 638 341 636 341 635 332 626 331 626 328 623 327 623 326 622 325 622 323 620 322 620 321 619 319 619 318 618 317 618 316 617 314 617 313 616 311 616 310 615 308 615 307 614 302 614 301 613 Z" fill="black"/>
<path d="M 501 502 500 503 497 503 496 504 494 504 493 505 491 505 490 506 489 506 488 507 487 507 486 508 485 508 484 509 483 509 481 511 480 511 478 513 477 513 471 519 471 520 469 522 469 523 466 526 466 527 465 528 465 529 464 530 464 532 463 533 463 535 462 536 462 539 461 540 461 546 460 547 460 551 461 552 461 559 462 560 462 563 463 564 463 566 464 567 464 569 465 570 465 571 466 572 466 573 467 574 467 575 468 576 468 577 470 579 470 580 482 592 483 592 484 593 485 593 487 595 488 595 489 596 491 596 492 597 493 597 494 598 496 598 497 599 501 599 502 600 521 600 522 599 526 599 527 598 529 598 530 597 531 597 532 596 534 596 535 595 536 595 538 593 539 593 541 591 542 591 550 583 550 582 553 579 553 578 554 577 554 576 556 574 556 572 557 571 557 570 558 569 558 567 559 566 559 564 560 563 560 560 561 559 561 542 560 541 560 537 559 536 559 534 558 533 558 532 557 531 557 529 556 528 556 527 554 525 554 524 552 522 552 521 544 513 543 513 541 511 540 511 538 509 537 509 536 508 535 508 534 507 533 507 532 506 531 506 530 505 528 505 527 504 524 504 523 503 520 503 519 502 Z" fill="black"/>
<path d="M 754 497 753 498 750 498 749 499 746 499 745 500 744 500 743 501 742 501 741 502 739 502 737 504 736 504 734 506 733 506 725 514 725 515 723 517 723 518 722 519 722 520 721 521 721 522 720 523 720 524 719 525 719 526 718 527 718 529 717 530 717 532 716 533 716 537 715 538 715 553 716 554 716 558 717 559 717 561 718 562 718 564 719 565 719 566 720 567 720 568 721 569 721 570 722 571 722 572 723 573 723 574 726 577 726 578 734 586 735 586 737 588 738 588 739 589 740 589 742 591 744 591 745 592 746 592 747 593 748 593 749 594 752 594 753 595 757 595 758 596 773 596 774 595 778 595 779 594 782 594 783 593 784 593 785 592 787 592 788 591 789 591 791 589 792 589 793 588 794 588 796 586 797 586 805 578 805 577 808 574 808 573 809 572 809 571 810 570 810 569 811 568 811 567 812 566 812 565 813 564 813 562 814 561 814 558 815 557 815 553 816 552 816 540 815 539 815 535 814 534 814 531 813 530 813 529 812 528 812 526 811 525 811 524 810 523 810 522 808 520 808 519 806 517 806 516 796 506 795 506 792 503 791 503 790 502 789 502 788 501 787 501 786 500 784 500 783 499 781 499 780 498 775 498 774 497 Z" fill="black"/>
<path d="M 252 494 251 495 245 495 244 496 242 496 241 497 239 497 238 498 237 498 236 499 234 499 232 501 231 501 230 502 229 502 224 507 223 507 223 508 216 515 216 516 214 518 214 519 213 520 213 521 212 522 212 523 211 524 211 525 210 526 210 528 209 529 209 532 208 533 208 537 207 538 207 549 208 550 208 555 209 556 209 559 210 560 210 562 211 563 211 564 212 565 212 567 213 568 213 569 215 571 215 572 216 573 216 574 218 576 218 577 226 585 227 585 229 587 230 587 232 589 233 589 234 590 235 590 236 591 237 591 238 592 239 592 240 593 242 593 243 594 246 594 247 595 253 595 254 596 263 596 264 595 269 595 270 594 273 594 274 593 276 593 277 592 278 592 279 591 281 591 282 590 283 590 284 589 285 589 287 587 288 587 290 585 291 585 297 579 297 578 300 575 300 574 302 572 302 571 303 570 303 569 304 568 304 566 305 565 305 564 306 563 306 561 307 560 307 556 308 555 308 538 307 537 307 534 306 533 306 530 305 529 305 528 304 527 304 525 303 524 303 523 302 522 302 521 300 519 300 518 299 517 299 516 296 513 296 512 288 504 287 504 285 502 284 502 282 500 281 500 280 499 279 499 278 498 276 498 275 497 273 497 272 496 270 496 269 495 263 495 262 494 Z" fill="black"/>
<path d="M 387 404 387 565 388 566 440 566 441 567 445 567 445 566 444 565 444 560 443 559 443 545 444 544 444 539 445 538 445 535 446 534 446 531 447 530 447 528 448 527 448 526 449 525 449 523 450 522 450 521 451 520 451 519 452 518 452 517 453 516 453 515 454 514 454 513 456 511 456 510 467 499 468 499 471 496 472 496 474 494 475 494 477 492 478 492 479 491 480 491 481 490 482 490 483 489 484 489 485 488 487 488 488 487 489 487 490 486 492 486 493 485 496 485 497 484 502 484 503 483 519 483 520 484 525 484 526 485 529 485 530 486 532 486 533 487 535 487 536 488 537 488 538 489 540 489 541 490 542 490 543 491 544 491 545 492 546 492 548 494 549 494 552 497 553 497 563 507 563 508 568 513 568 514 570 516 570 517 572 519 572 520 573 521 573 522 574 523 574 524 575 525 575 526 576 527 576 529 577 530 577 533 578 534 578 537 579 538 579 544 580 545 580 555 579 556 579 562 578 563 578 566 577 567 609 567 610 566 635 566 635 404 598 404 597 405 435 405 434 404 Z" fill="black"/>
<path d="M 356 350 355 351 354 351 353 352 352 352 350 354 350 356 349 357 349 381 350 382 350 386 353 389 354 389 355 390 666 390 667 389 669 389 672 386 672 385 673 384 673 366 674 365 674 358 673 357 673 355 672 354 672 353 671 353 669 351 667 351 666 350 608 350 607 351 606 350 605 351 604 351 603 350 602 351 601 350 600 351 398 351 397 350 Z" fill="black"/>
<path d="M 476 257 475 258 470 258 469 259 465 259 464 260 460 260 459 261 456 261 455 262 452 262 451 263 449 263 448 264 446 264 445 265 444 265 443 266 442 266 441 267 440 267 439 268 438 268 436 270 435 270 432 273 431 273 424 280 424 281 421 284 421 285 420 286 420 287 419 288 419 289 418 290 418 291 417 292 417 293 416 294 416 297 415 298 415 301 414 302 414 312 413 313 413 334 606 334 606 315 605 314 605 305 604 304 604 300 603 299 603 297 602 296 602 295 601 294 601 293 600 292 600 291 599 290 599 289 598 288 598 287 596 285 596 284 585 273 584 273 581 270 580 270 579 269 578 269 577 268 576 268 574 266 572 266 571 265 570 265 569 264 568 264 567 263 565 263 564 262 562 262 561 261 558 261 557 260 554 260 553 259 548 259 547 258 535 258 529 264 529 265 527 267 527 268 526 269 526 270 525 271 525 272 523 274 523 276 521 278 521 280 519 282 519 283 518 284 518 285 517 286 517 287 516 288 516 289 515 290 515 291 514 292 514 293 513 294 513 295 512 296 512 297 510 299 510 300 509 301 508 301 507 300 507 299 506 298 506 297 505 296 505 295 504 294 504 293 503 292 503 291 502 290 502 289 501 288 501 287 500 286 500 285 498 283 498 282 497 281 497 280 496 279 496 278 495 277 495 276 494 275 494 274 493 273 493 272 492 271 492 270 491 269 491 268 489 266 489 265 488 264 488 263 487 262 487 261 486 260 486 259 485 258 485 257 Z" fill="black"/>
<path d="M 497 136 496 137 493 137 492 138 490 138 489 139 488 139 487 140 486 140 485 141 484 141 483 142 482 142 480 144 479 144 477 146 476 146 469 153 469 154 467 156 467 157 465 159 465 160 464 161 464 162 463 163 463 164 462 165 462 166 461 167 461 168 460 169 460 171 459 172 459 175 458 176 458 181 457 182 457 200 458 201 458 204 459 205 459 207 460 208 460 210 461 211 461 212 462 213 462 214 463 215 463 216 465 218 465 219 467 221 467 222 478 233 479 233 481 235 482 235 483 236 484 236 485 237 486 237 487 238 488 238 489 239 490 239 491 240 493 240 494 241 498 241 499 242 517 242 518 241 521 241 522 240 524 240 525 239 527 239 528 238 529 238 530 237 531 237 532 236 533 236 534 235 535 235 536 234 537 234 539 232 540 232 549 223 549 222 551 220 551 219 552 218 552 217 553 216 553 215 554 214 554 213 555 212 555 211 556 210 556 208 557 207 557 206 558 205 558 202 559 201 559 196 560 195 560 180 559 179 559 175 558 174 558 172 557 171 557 169 556 168 556 167 555 166 555 165 554 164 554 163 553 162 553 161 552 160 552 159 551 158 551 157 548 154 548 153 541 146 540 146 537 143 536 143 535 142 534 142 533 141 531 141 530 140 529 140 528 139 526 139 525 138 521 138 520 137 515 137 514 136 Z" fill="black"/>
<path d="M 159 58 158 59 156 59 155 60 154 60 152 62 151 62 150 63 150 64 148 66 148 68 147 69 147 403 148 404 148 405 149 406 149 407 151 409 151 410 152 410 154 412 155 412 156 413 158 413 159 414 325 414 325 387 274 387 273 386 174 386 173 385 174 384 174 88 173 87 173 86 174 85 303 85 304 84 534 84 535 83 849 83 851 85 851 386 850 387 716 387 715 388 697 388 697 402 698 403 698 413 697 414 802 414 803 413 866 413 867 412 868 412 869 411 870 411 872 409 873 409 874 408 874 407 876 405 876 403 877 402 877 68 876 67 876 66 875 65 875 64 871 60 870 60 869 59 867 59 866 58 Z" fill="black"/>
</svg>